<svg width="180" height="71" viewBox="0 0 180 71" xmlns="http://www.w3.org/2000/svg" xmlns:xlink="http://www.w3.org/1999/xlink"><title>Logotype</title><defs><path id="a" d="M0 70.593h179.885V0H0z"/></defs><g fill="none" fill-rule="evenodd"><path d="M57.426 5.733v9.91H20.895s-1.096-.068-1.76.669c-.628.696-.575 1.652-.575 1.652l-.003 1.36h38.798v9.697H18.543l.01 1.33s.034.979.62 1.497c.809.717 1.552.641 1.552.641h36.701v9.91H15.488s-4.416.328-7.203-2.618c-2.703-2.858-2.623-6.465-2.623-6.465l.007-18.1s-.272-3.997 2.608-7.122C10.592 5.582 14.8 5.719 14.8 5.719l42.626.014zM9.472 70.593c3.44 0 4.702-1.912 4.702-3.746 0-4.76-7.55-3.116-7.55-5.983 0-1.203 1.109-2.025 2.619-2.025 1.395 0 2.733.458 3.688 1.528l.956-1.165c-1.07-1.128-2.58-1.797-4.51-1.797-2.523 0-4.396 1.453-4.396 3.555 0 4.549 7.549 2.714 7.549 6.001 0 .994-.726 2.217-3 2.217a5.258 5.258 0 0 1-3.995-1.834l-.956 1.223c1.052 1.184 2.695 2.026 4.893 2.026m26.986-.23V59.03h4.051v-1.415h-9.67v1.415h4.033v11.333zm26.642.23c3.459 0 5.217-2.026 5.217-5.199v-7.778h-1.605v7.759c0 2.332-1.262 3.803-3.613 3.803-2.35 0-3.593-1.471-3.593-3.803v-7.76h-1.605v7.798c0 3.135 1.758 5.18 5.198 5.18m27.846-1.644h-2.771v-9.92h2.771c3.154 0 4.893 2.218 4.893 4.97 0 2.733-1.797 4.95-4.893 4.95zm0 1.414c3.975 0 6.536-2.733 6.536-6.364 0-3.612-2.56-6.384-6.536-6.384h-4.357v12.748h4.357z" fill="#FFF"/><mask id="b" fill="#fff"><use xlink:href="#a"/></mask><path fill="#FFF" mask="url(#b)" d="M115.255 70.363h1.586V57.616h-1.586zm25.667-1.185c-2.867 0-4.682-2.217-4.682-5.18 0-2.98 1.815-5.179 4.682-5.179 2.848 0 4.702 2.198 4.702 5.18 0 2.962-1.854 5.18-4.702 5.18m0 1.413c3.765 0 6.345-2.828 6.345-6.593s-2.58-6.594-6.345-6.594c-3.765 0-6.326 2.829-6.326 6.594s2.561 6.593 6.326 6.593m28.228.001c3.44 0 4.702-1.912 4.702-3.746 0-4.76-7.55-3.116-7.55-5.983 0-1.203 1.109-2.025 2.619-2.025 1.395 0 2.733.458 3.688 1.528l.956-1.165c-1.07-1.128-2.58-1.797-4.51-1.797-2.523 0-4.396 1.453-4.396 3.555 0 4.549 7.55 2.714 7.55 6.001 0 .994-.727 2.217-3.001 2.217a5.259 5.259 0 0 1-3.995-1.834l-.956 1.223c1.052 1.184 2.695 2.026 4.893 2.026M60.424 5.66h12.812v26.756h39.356v9.981H60.424zm88.268.213h15.29l-21.66 17.908 22.013 18.475h-16.067L127.56 24.913l-.033 17.343h-12.53V5.873h12.53l-.073 15.218"/><path d="M130.38 30.965l-.028 14.12h-14.93l-55.166.143v.001h-44.69c-.107.006-.27.011-.48.011-1.663 0-5.856-.342-8.857-3.514-3.325-3.514-3.405-7.78-3.397-8.432L2.84 15.29c-.042-.913-.056-5.41 3.357-9.115 2.81-3.051 7.206-3.288 8.486-3.288l61.384-.058v26.757h36.102V3.043h18.203l-.06 12.52 17.472-12.52h24.063l-25.103 20.754 25.367 21.289H147.24l-16.86-14.12zm20.785-7.151L179.71.213h-32.836l-13.706 9.821.047-9.821h-23.877v26.544H78.896V0L14.682.058c-1.57 0-6.976.303-10.568 4.2C.1 8.618-.053 13.763.01 15.35L.002 33.278c-.01 1.036.157 6.15 4.171 10.393 3.757 3.97 8.883 4.4 10.913 4.4l48-.011v-.002l55.166-.142h14.925l.02-10.898 13.013 10.898h33.675l-28.72-24.102z" fill="#FFF" mask="url(#b)"/><path d="M57.426 5.733v9.91H20.895s-1.096-.068-1.76.669c-.628.696-.575 1.652-.575 1.652l-.003 1.36h38.798v9.697H18.543l.01 1.33s.034.979.62 1.497c.809.717 1.552.641 1.552.641h36.701v9.91H15.488s-4.416.328-7.203-2.618c-2.703-2.858-2.623-6.465-2.623-6.465l.007-18.1s-.272-3.997 2.608-7.122C10.592 5.582 14.8 5.719 14.8 5.719l42.626.014zm2.998-.073h12.812v26.756h39.356v9.981H60.424zm88.268.213h15.29l-21.66 17.908 22.013 18.475h-16.067L127.56 24.913l-.033 17.343h-12.53V5.873h12.53l-.073 15.218" fill="#FFF" mask="url(#b)"/></g></svg>